<mxfile host="Electron" modified="2023-05-31T19:21:36.486Z" agent="Mozilla/5.0 (Windows NT 10.0; Win64; x64) AppleWebKit/537.36 (KHTML, like Gecko) draw.io/21.2.8 Chrome/112.0.5615.165 Electron/24.2.0 Safari/537.36" etag="6QdSS5JWtoB-ksyQDP8m" version="21.2.8" type="device">
  <diagram name="PÃ¡gina-1" id="tnLYVHQVuQNIybsR_wTZ">
    <mxGraphModel dx="1434" dy="844" grid="1" gridSize="10" guides="1" tooltips="1" connect="1" arrows="1" fold="1" page="1" pageScale="1" pageWidth="1169" pageHeight="1654" math="0" shadow="0">
      <root>
        <mxCell id="0" />
        <mxCell id="1" parent="0" />
        <mxCell id="Bnvg35rW7mK3CsUdj4Z7-1" value="Analista" style="shape=umlActor;verticalLabelPosition=bottom;verticalAlign=top;html=1;outlineConnect=0;" vertex="1" parent="1">
          <mxGeometry x="80" y="200" width="30" height="60" as="geometry" />
        </mxCell>
        <mxCell id="Bnvg35rW7mK3CsUdj4Z7-2" value="Analista" style="shape=umlActor;verticalLabelPosition=bottom;verticalAlign=top;html=1;outlineConnect=0;" vertex="1" parent="1">
          <mxGeometry x="60" y="400" width="30" height="60" as="geometry" />
        </mxCell>
        <mxCell id="Bnvg35rW7mK3CsUdj4Z7-3" value="Analista" style="shape=umlActor;verticalLabelPosition=bottom;verticalAlign=top;html=1;outlineConnect=0;" vertex="1" parent="1">
          <mxGeometry x="70" y="720" width="20" height="60" as="geometry" />
        </mxCell>
        <mxCell id="Bnvg35rW7mK3CsUdj4Z7-4" value="frame" style="shape=umlFrame;whiteSpace=wrap;html=1;pointerEvents=0;" vertex="1" parent="1">
          <mxGeometry x="180" y="130" width="500" height="780" as="geometry" />
        </mxCell>
        <mxCell id="Bnvg35rW7mK3CsUdj4Z7-6" value="Funcionalidade 1" style="shape=module;align=left;spacingLeft=20;align=center;verticalAlign=top;whiteSpace=wrap;html=1;" vertex="1" parent="1">
          <mxGeometry x="240" y="150" width="350" height="210" as="geometry" />
        </mxCell>
        <mxCell id="Bnvg35rW7mK3CsUdj4Z7-7" value="Funcionalidade 1" style="shape=module;align=left;spacingLeft=20;align=center;verticalAlign=top;whiteSpace=wrap;html=1;" vertex="1" parent="1">
          <mxGeometry x="240" y="630" width="350" height="220" as="geometry" />
        </mxCell>
        <mxCell id="Bnvg35rW7mK3CsUdj4Z7-8" value="Funcionalidade 1" style="shape=module;align=left;spacingLeft=20;align=center;verticalAlign=top;whiteSpace=wrap;html=1;" vertex="1" parent="1">
          <mxGeometry x="240" y="380" width="350" height="210" as="geometry" />
        </mxCell>
        <mxCell id="Bnvg35rW7mK3CsUdj4Z7-16" value="" style="endArrow=classic;html=1;rounded=0;" edge="1" parent="1" source="Bnvg35rW7mK3CsUdj4Z7-2" target="Bnvg35rW7mK3CsUdj4Z7-8">
          <mxGeometry width="50" height="50" relative="1" as="geometry">
            <mxPoint x="300" y="550" as="sourcePoint" />
            <mxPoint x="350" y="500" as="targetPoint" />
          </mxGeometry>
        </mxCell>
        <mxCell id="Bnvg35rW7mK3CsUdj4Z7-17" value="" style="endArrow=classic;html=1;rounded=0;entryX=0;entryY=0.5;entryDx=10;entryDy=0;entryPerimeter=0;" edge="1" parent="1" source="Bnvg35rW7mK3CsUdj4Z7-1" target="Bnvg35rW7mK3CsUdj4Z7-6">
          <mxGeometry width="50" height="50" relative="1" as="geometry">
            <mxPoint x="300" y="550" as="sourcePoint" />
            <mxPoint x="350" y="500" as="targetPoint" />
          </mxGeometry>
        </mxCell>
        <mxCell id="Bnvg35rW7mK3CsUdj4Z7-18" value="package" style="shape=folder;fontStyle=1;spacingTop=10;tabWidth=40;tabHeight=14;tabPosition=left;html=1;whiteSpace=wrap;" vertex="1" parent="1">
          <mxGeometry x="280" y="190" width="70" height="50" as="geometry" />
        </mxCell>
        <mxCell id="Bnvg35rW7mK3CsUdj4Z7-19" value="package" style="shape=folder;fontStyle=1;spacingTop=10;tabWidth=40;tabHeight=14;tabPosition=left;html=1;whiteSpace=wrap;" vertex="1" parent="1">
          <mxGeometry x="270" y="420" width="130" height="150" as="geometry" />
        </mxCell>
        <mxCell id="Bnvg35rW7mK3CsUdj4Z7-20" value="package" style="shape=folder;fontStyle=1;spacingTop=10;tabWidth=40;tabHeight=14;tabPosition=left;html=1;whiteSpace=wrap;" vertex="1" parent="1">
          <mxGeometry x="270" y="280" width="70" height="50" as="geometry" />
        </mxCell>
        <mxCell id="Bnvg35rW7mK3CsUdj4Z7-21" value="package" style="shape=folder;fontStyle=1;spacingTop=10;tabWidth=40;tabHeight=14;tabPosition=left;html=1;whiteSpace=wrap;" vertex="1" parent="1">
          <mxGeometry x="260" y="670" width="70" height="50" as="geometry" />
        </mxCell>
        <mxCell id="Bnvg35rW7mK3CsUdj4Z7-22" value="&lt;p style=&quot;margin:0px;margin-top:6px;text-align:center;&quot;&gt;&lt;b&gt;Component&lt;/b&gt;&lt;/p&gt;&lt;hr/&gt;&lt;p style=&quot;margin:0px;margin-left:8px;&quot;&gt;+ Attribute1: Type&lt;br/&gt;+ Attribute2: Type&lt;/p&gt;" style="align=left;overflow=fill;html=1;dropTarget=0;whiteSpace=wrap;" vertex="1" parent="1">
          <mxGeometry x="480" y="630" width="90" height="90" as="geometry" />
        </mxCell>
        <mxCell id="Bnvg35rW7mK3CsUdj4Z7-23" value="" style="shape=component;jettyWidth=8;jettyHeight=4;" vertex="1" parent="Bnvg35rW7mK3CsUdj4Z7-22">
          <mxGeometry x="1" width="20" height="20" relative="1" as="geometry">
            <mxPoint x="-24" y="4" as="offset" />
          </mxGeometry>
        </mxCell>
        <mxCell id="Bnvg35rW7mK3CsUdj4Z7-24" value="&lt;div style=&quot;box-sizing:border-box;width:100%;background:#e4e4e4;padding:2px;&quot;&gt;Tablename&lt;/div&gt;&lt;table style=&quot;width:100%;font-size:1em;&quot; cellpadding=&quot;2&quot; cellspacing=&quot;0&quot;&gt;&lt;tr&gt;&lt;td&gt;PK&lt;/td&gt;&lt;td&gt;uniqueId&lt;/td&gt;&lt;/tr&gt;&lt;tr&gt;&lt;td&gt;FK1&lt;/td&gt;&lt;td&gt;foreignKey&lt;/td&gt;&lt;/tr&gt;&lt;tr&gt;&lt;td&gt;&lt;/td&gt;&lt;td&gt;fieldname&lt;/td&gt;&lt;/tr&gt;&lt;/table&gt;" style="verticalAlign=top;align=left;overflow=fill;html=1;whiteSpace=wrap;" vertex="1" parent="1">
          <mxGeometry x="405" y="737" width="180" height="90" as="geometry" />
        </mxCell>
        <mxCell id="Bnvg35rW7mK3CsUdj4Z7-25" value="Control Object" style="ellipse;shape=umlControl;whiteSpace=wrap;html=1;" vertex="1" parent="1">
          <mxGeometry x="500" y="180" width="70" height="80" as="geometry" />
        </mxCell>
        <mxCell id="Bnvg35rW7mK3CsUdj4Z7-26" value="Entity Object" style="ellipse;shape=umlEntity;whiteSpace=wrap;html=1;" vertex="1" parent="1">
          <mxGeometry x="460" y="445" width="80" height="80" as="geometry" />
        </mxCell>
        <mxCell id="Bnvg35rW7mK3CsUdj4Z7-27" value="" style="endArrow=classic;html=1;rounded=0;exitX=0.5;exitY=0.5;exitDx=0;exitDy=0;exitPerimeter=0;entryX=0.017;entryY=0.555;entryDx=0;entryDy=0;entryPerimeter=0;" edge="1" parent="1" source="Bnvg35rW7mK3CsUdj4Z7-3" target="Bnvg35rW7mK3CsUdj4Z7-7">
          <mxGeometry width="50" height="50" relative="1" as="geometry">
            <mxPoint x="300" y="550" as="sourcePoint" />
            <mxPoint x="350" y="500" as="targetPoint" />
          </mxGeometry>
        </mxCell>
        <mxCell id="Bnvg35rW7mK3CsUdj4Z7-28" value="Cenario 4" style="rounded=0;whiteSpace=wrap;html=1;" vertex="1" parent="1">
          <mxGeometry x="860" y="185" width="120" height="60" as="geometry" />
        </mxCell>
      </root>
    </mxGraphModel>
  </diagram>
</mxfile>
